<svg xmlns="http://www.w3.org/2000/svg" viewBox="0 0 512 512" width="512" height="512" style="" data-bbox="17.099 46.028 477.802 419.944">
  <g data-icon="" fill="#522a8f" transform="matrix(0.933207983650693, 0, 0, 0.933207983650693, 17.098758632857937, 17.098756185422594)">
    <path d="M510.023 248.558l-120-210C387.353 33.884 382.383 31 377 31H135c-5.383 0-10.352 2.885-13.023 7.558l-120 210&#xA;&#x9;&#x9;&#x9;c-2.636 4.611-2.636 10.272 0 14.884l120 210c2.67 4.674 7.64 7.558 13.023 7.558h242c5.383 0 10.353-2.884 13.023-7.558l120-210&#xA;&#x9;&#x9;&#x9;C512.659 258.831 512.659 253.17 510.023 248.558z M368.295 451h-224.59L32.277 256L143.705 61h224.59l111.429 195L368.295 451z" fill="#522a8f" />
  </g>
  <path text-anchor="middle" offset="0.5" fill="#522a8f" space="preserve" font-scale="contain" font-size="48" font-family="Saira Stencil One" text="Y" font-style="normal" font-weight="400" data-fl-textpath="" transform="matrix(7.676657542813605, 0, 0, 7.676657542813605, 256.0153522022889, 397.8292567532773)" d="M-4.822 0L-4.822-10.9L-5.252-11.86L-6.502-14.3L-7.702-16.85Q-7.892-17.18 -8.182-17.86L-8.182-17.86L-10.152-21.94L-15.432-33.02L-5.642-33.02L 4.778-10.85L 4.778 0L-4.822 0ZM 5.878-13.2L 1.368-22.8L 5.828-33.02L 15.428-33.02L 11.688-25.25L 10.108-21.98L 7.078-15.7L 5.878-13.2Z" />
</svg>